<svg xmlns="http://www.w3.org/2000/svg" width="1600" height="900" viewBox="0 0 1600 900" role="img" aria-label="高考志愿咨询助手 工作流：从大量候选到可填方案">
  <defs>
    <linearGradient id="readability" x1="0" y1="0" x2="0" y2="1">
      <stop offset="0" stop-color="#fbfdff" stop-opacity="0.98"/>
      <stop offset="0.45" stop-color="#fbfdff" stop-opacity="0.8"/>
      <stop offset="1" stop-color="#fbfdff" stop-opacity="0.18"/>
    </linearGradient>
    <filter id="shadow" x="-18%" y="-26%" width="136%" height="160%">
      <feDropShadow dx="0" dy="18" stdDeviation="24" flood-color="#0f172a" flood-opacity="0.12"/>
    </filter>
    <style>
      .font{font-family:-apple-system,BlinkMacSystemFont,"PingFang SC","Noto Sans CJK SC","Microsoft YaHei",Arial,sans-serif}
      .kicker{font-size:23px;font-weight:780;letter-spacing:2px;fill:#1d4ed8}
      .title{font-size:68px;font-weight:860;fill:#0f172a}
      .sub{font-size:26px;font-weight:580;fill:#475569}
      .step{font-size:28px;font-weight:840;fill:#0f172a}
      .desc{font-size:21px;font-weight:600;fill:#64748b}
      .note{font-size:24px;font-weight:800;fill:#0f172a}
    </style>
  </defs>

  <image href="backgrounds/workflow-bg.png" width="1600" height="900" preserveAspectRatio="xMidYMid slice"/>
  <rect width="1600" height="900" fill="url(#readability)"/>

  <g transform="translate(92 76)">
    <text class="font kicker" x="0" y="0">HOW IT WORKS</text>
    <text class="font title" x="0" y="90">从大量候选，到能解释的方案</text>
    <text class="font sub" x="2" y="134">Agent 不凭印象拍脑袋；每一步都留下来源、理由、风险和待核验事项。</text>
  </g>

  <g filter="url(#shadow)">
    <g transform="translate(106 468)">
      <rect width="236" height="108" rx="24" fill="#ffffff" fill-opacity="0.93"/>
      <text class="font step" x="32" y="48">问清资料</text>
      <text class="font desc" x="32" y="82">省份、位次、约束</text>
    </g>
    <g transform="translate(360 468)">
      <rect width="236" height="108" rx="24" fill="#ffffff" fill-opacity="0.93"/>
      <text class="font step" x="32" y="48">查清规则</text>
      <text class="font desc" x="32" y="82">计划、章程、专业组</text>
    </g>
    <g transform="translate(614 468)">
      <rect width="236" height="108" rx="24" fill="#ffffff" fill-opacity="0.93"/>
      <text class="font step" x="32" y="48">尽量找全</text>
      <text class="font desc" x="32" y="82">省内、省外、特殊机会</text>
    </g>
    <g transform="translate(868 468)">
      <rect width="236" height="108" rx="24" fill="#ffffff" fill-opacity="0.93"/>
      <text class="font step" x="32" y="48">逐步排除</text>
      <text class="font desc" x="32" y="82">不合规、不适配</text>
    </g>
    <g transform="translate(1122 468)">
      <rect width="236" height="108" rx="24" fill="#ffffff" fill-opacity="0.93"/>
      <text class="font step" x="32" y="48">输出方案</text>
      <text class="font desc" x="32" y="82">报告、表格、排序</text>
    </g>
  </g>

  <g transform="translate(146 640)" filter="url(#shadow)">
    <rect width="1308" height="140" rx="34" fill="#ffffff" fill-opacity="0.92"/>
    <text class="font note" x="44" y="52">变更记录：每个选择为什么进来、为什么排除、什么情况下可以复入</text>
    <g transform="translate(44 86)">
      <rect width="245" height="44" rx="22" fill="#ecfeff"/>
      <text class="font desc" x="34" y="29" fill="#0f766e" font-weight="820">候选清单</text>
      <rect x="296" width="245" height="44" rx="22" fill="#eff6ff"/>
      <text class="font desc" x="330" y="29" fill="#1d4ed8" font-weight="820">排除理由</text>
      <rect x="592" width="245" height="44" rx="22" fill="#f5f3ff"/>
      <text class="font desc" x="626" y="29" fill="#6d28d9" font-weight="820">待核验事项</text>
      <rect x="888" width="280" height="44" rx="22" fill="#fffbeb"/>
      <text class="font desc" x="922" y="29" fill="#b45309" font-weight="820">最终组合说明</text>
    </g>
  </g>

  <g transform="translate(252 822)">
    <text class="font" x="0" y="0" font-size="24" font-weight="760" fill="#334155">目标不是给一个神秘答案，而是让每个推荐都说得清、查得到、能复核。</text>
  </g>
</svg>
